<?xml version="1.0" encoding="UTF-8" standalone="no"?>
<!DOCTYPE svg PUBLIC "-//W3C//DTD SVG 1.1//EN"
 "http://www.w3.org/Graphics/SVG/1.1/DTD/svg11.dtd">
<!-- Generated by graphviz version 11.0.0 (20240428.1522)
 -->
<!-- Pages: 1 -->
<svg width="1233pt" height="310pt"
 viewBox="0.00 0.00 1233.47 309.50" xmlns="http://www.w3.org/2000/svg" xmlns:xlink="http://www.w3.org/1999/xlink">
<g id="graph0" class="graph" transform="scale(1 1) rotate(0) translate(4 305.5)">
<polygon fill="white" stroke="none" points="-4,4 -4,-305.5 1229.47,-305.5 1229.47,4 -4,4"/>
<!-- 0 -->
<g id="node1" class="node">
<title>0</title>
<ellipse fill="none" stroke="black" cx="631.27" cy="-283.5" rx="98.44" ry="18"/>
<text text-anchor="middle" x="631.27" y="-278.45" font-family="Times,serif" font-size="14.00">test_MMethadone_4&lt;1</text>
</g>
<!-- 1 -->
<g id="node2" class="node">
<title>1</title>
<ellipse fill="none" stroke="black" cx="517.27" cy="-195" rx="86.15" ry="18"/>
<text text-anchor="middle" x="517.27" y="-189.95" font-family="Times,serif" font-size="14.00">test_Opiate300_1&lt;1</text>
</g>
<!-- 0&#45;&gt;1 -->
<g id="edge1" class="edge">
<title>0&#45;&gt;1</title>
<path fill="none" stroke="#ff0000" d="M609.02,-265.62C591.76,-252.52 567.62,-234.2 548.44,-219.65"/>
<polygon fill="#ff0000" stroke="#ff0000" points="550.76,-217.01 540.67,-213.76 546.52,-222.59 550.76,-217.01"/>
<text text-anchor="middle" x="594.27" y="-234.2" font-family="Times,serif" font-size="14.00">yes</text>
</g>
<!-- 2 -->
<g id="node3" class="node">
<title>2</title>
<ellipse fill="none" stroke="black" cx="746.27" cy="-195" rx="113.28" ry="18"/>
<text text-anchor="middle" x="746.27" y="-189.95" font-family="Times,serif" font-size="14.00">meds_buprenorphine_4&lt;66</text>
</g>
<!-- 0&#45;&gt;2 -->
<g id="edge2" class="edge">
<title>0&#45;&gt;2</title>
<path fill="none" stroke="#0000ff" d="M653.72,-265.62C671.13,-252.52 695.48,-234.2 714.84,-219.65"/>
<polygon fill="#0000ff" stroke="#0000ff" points="716.79,-222.56 722.67,-213.75 712.58,-216.96 716.79,-222.56"/>
<text text-anchor="middle" x="731.15" y="-234.2" font-family="Times,serif" font-size="14.00">no, missing</text>
</g>
<!-- 3 -->
<g id="node4" class="node">
<title>3</title>
<ellipse fill="none" stroke="black" cx="276.27" cy="-106.5" rx="96.39" ry="18"/>
<text text-anchor="middle" x="276.27" y="-101.45" font-family="Times,serif" font-size="14.00">survey_cannabis_4&lt;20</text>
</g>
<!-- 1&#45;&gt;3 -->
<g id="edge3" class="edge">
<title>1&#45;&gt;3</title>
<path fill="none" stroke="#ff0000" d="M475.29,-178.93C435.01,-164.48 374,-142.58 330.15,-126.84"/>
<polygon fill="#ff0000" stroke="#ff0000" points="331.41,-123.57 320.82,-123.49 329.05,-130.16 331.41,-123.57"/>
<text text-anchor="middle" x="428.27" y="-145.7" font-family="Times,serif" font-size="14.00">yes</text>
</g>
<!-- 4 -->
<g id="node5" class="node">
<title>4</title>
<ellipse fill="none" stroke="black" cx="517.27" cy="-106.5" rx="127.1" ry="18"/>
<text text-anchor="middle" x="517.27" y="-101.45" font-family="Times,serif" font-size="14.00">dsm_cannabis_no_diagnosis&lt;1</text>
</g>
<!-- 1&#45;&gt;4 -->
<g id="edge4" class="edge">
<title>1&#45;&gt;4</title>
<path fill="none" stroke="#0000ff" d="M517.27,-176.91C517.27,-165.26 517.27,-149.55 517.27,-136.02"/>
<polygon fill="#0000ff" stroke="#0000ff" points="520.77,-136.36 517.27,-126.36 513.77,-136.36 520.77,-136.36"/>
<text text-anchor="middle" x="549.15" y="-145.7" font-family="Times,serif" font-size="14.00">no, missing</text>
</g>
<!-- 5 -->
<g id="node10" class="node">
<title>5</title>
<ellipse fill="none" stroke="black" cx="746.27" cy="-106.5" rx="83.6" ry="18"/>
<text text-anchor="middle" x="746.27" y="-101.45" font-family="Times,serif" font-size="14.00">leaf=0.0119902724</text>
</g>
<!-- 2&#45;&gt;5 -->
<g id="edge9" class="edge">
<title>2&#45;&gt;5</title>
<path fill="none" stroke="#ff0000" d="M746.27,-176.91C746.27,-165.26 746.27,-149.55 746.27,-136.02"/>
<polygon fill="#ff0000" stroke="#ff0000" points="749.77,-136.36 746.27,-126.36 742.77,-136.36 749.77,-136.36"/>
<text text-anchor="middle" x="755.27" y="-145.7" font-family="Times,serif" font-size="14.00">yes</text>
</g>
<!-- 6 -->
<g id="node11" class="node">
<title>6</title>
<ellipse fill="none" stroke="black" cx="965.27" cy="-106.5" rx="117.89" ry="18"/>
<text text-anchor="middle" x="965.27" y="-101.45" font-family="Times,serif" font-size="14.00">meds_buprenorphine_4&lt;176</text>
</g>
<!-- 2&#45;&gt;6 -->
<g id="edge10" class="edge">
<title>2&#45;&gt;6</title>
<path fill="none" stroke="#0000ff" d="M787.21,-177.83C822.97,-163.71 875.05,-143.14 913.66,-127.89"/>
<polygon fill="#0000ff" stroke="#0000ff" points="914.74,-131.22 922.76,-124.29 912.17,-124.71 914.74,-131.22"/>
<text text-anchor="middle" x="907.15" y="-145.7" font-family="Times,serif" font-size="14.00">no, missing</text>
</g>
<!-- 7 -->
<g id="node6" class="node">
<title>7</title>
<ellipse fill="none" stroke="black" cx="91.27" cy="-18" rx="91.27" ry="18"/>
<text text-anchor="middle" x="91.27" y="-12.95" font-family="Times,serif" font-size="14.00">leaf=&#45;0.00688928412</text>
</g>
<!-- 3&#45;&gt;7 -->
<g id="edge5" class="edge">
<title>3&#45;&gt;7</title>
<path fill="none" stroke="#ff0000" d="M241.91,-89.43C212.02,-75.46 168.51,-55.11 135.93,-39.88"/>
<polygon fill="#ff0000" stroke="#ff0000" points="137.68,-36.83 127.14,-35.77 134.71,-43.17 137.68,-36.83"/>
<text text-anchor="middle" x="210.27" y="-57.2" font-family="Times,serif" font-size="14.00">yes</text>
</g>
<!-- 8 -->
<g id="node7" class="node">
<title>8</title>
<ellipse fill="none" stroke="black" cx="288.27" cy="-18" rx="88.2" ry="18"/>
<text text-anchor="middle" x="288.27" y="-12.95" font-family="Times,serif" font-size="14.00">leaf=0.00448336964</text>
</g>
<!-- 3&#45;&gt;8 -->
<g id="edge6" class="edge">
<title>3&#45;&gt;8</title>
<path fill="none" stroke="#0000ff" d="M278.64,-88.41C280.26,-76.76 282.44,-61.05 284.32,-47.52"/>
<polygon fill="#0000ff" stroke="#0000ff" points="287.75,-48.24 285.66,-37.85 280.82,-47.27 287.75,-48.24"/>
<text text-anchor="middle" x="316.15" y="-57.2" font-family="Times,serif" font-size="14.00">no, missing</text>
</g>
<!-- 9 -->
<g id="node8" class="node">
<title>9</title>
<ellipse fill="none" stroke="black" cx="505.27" cy="-18" rx="88.2" ry="18"/>
<text text-anchor="middle" x="505.27" y="-12.95" font-family="Times,serif" font-size="14.00">leaf=0.00353516568</text>
</g>
<!-- 4&#45;&gt;9 -->
<g id="edge7" class="edge">
<title>4&#45;&gt;9</title>
<path fill="none" stroke="#ff0000" d="M514.9,-88.41C513.29,-76.76 511.11,-61.05 509.23,-47.52"/>
<polygon fill="#ff0000" stroke="#ff0000" points="512.73,-47.27 507.89,-37.85 505.79,-48.24 512.73,-47.27"/>
<text text-anchor="middle" x="522.27" y="-57.2" font-family="Times,serif" font-size="14.00">yes</text>
</g>
<!-- 10 -->
<g id="node9" class="node">
<title>10</title>
<ellipse fill="none" stroke="black" cx="702.27" cy="-18" rx="91.27" ry="18"/>
<text text-anchor="middle" x="702.27" y="-12.95" font-family="Times,serif" font-size="14.00">leaf=&#45;0.00294381427</text>
</g>
<!-- 4&#45;&gt;10 -->
<g id="edge8" class="edge">
<title>4&#45;&gt;10</title>
<path fill="none" stroke="#0000ff" d="M552.94,-88.82C582.88,-74.82 625.79,-54.76 657.93,-39.73"/>
<polygon fill="#0000ff" stroke="#0000ff" points="659.02,-43.09 666.59,-35.68 656.05,-36.75 659.02,-43.09"/>
<text text-anchor="middle" x="659.15" y="-57.2" font-family="Times,serif" font-size="14.00">no, missing</text>
</g>
<!-- 11 -->
<g id="node12" class="node">
<title>11</title>
<ellipse fill="none" stroke="black" cx="940.27" cy="-18" rx="91.27" ry="18"/>
<text text-anchor="middle" x="940.27" y="-12.95" font-family="Times,serif" font-size="14.00">leaf=&#45;0.00719710998</text>
</g>
<!-- 6&#45;&gt;11 -->
<g id="edge11" class="edge">
<title>6&#45;&gt;11</title>
<path fill="none" stroke="#ff0000" d="M960.33,-88.41C956.93,-76.64 952.33,-60.73 948.4,-47.11"/>
<polygon fill="#ff0000" stroke="#ff0000" points="951.85,-46.44 945.71,-37.8 945.12,-48.38 951.85,-46.44"/>
<text text-anchor="middle" x="963.27" y="-57.2" font-family="Times,serif" font-size="14.00">yes</text>
</g>
<!-- 12 -->
<g id="node13" class="node">
<title>12</title>
<ellipse fill="none" stroke="black" cx="1137.27" cy="-18" rx="88.2" ry="18"/>
<text text-anchor="middle" x="1137.27" y="-12.95" font-family="Times,serif" font-size="14.00">leaf=0.00268152566</text>
</g>
<!-- 6&#45;&gt;12 -->
<g id="edge12" class="edge">
<title>6&#45;&gt;12</title>
<path fill="none" stroke="#0000ff" d="M998.44,-88.82C1025.94,-74.99 1065.22,-55.23 1094.99,-40.26"/>
<polygon fill="#0000ff" stroke="#0000ff" points="1096.37,-43.49 1103.73,-35.87 1093.23,-37.23 1096.37,-43.49"/>
<text text-anchor="middle" x="1098.15" y="-57.2" font-family="Times,serif" font-size="14.00">no, missing</text>
</g>
</g>
</svg>
